<svg width="516" height="485" viewBox="0 0 516 485" fill="none" xmlns="http://www.w3.org/2000/svg">
<path d="M257.791 484.89C400.164 484.89 515.581 420.267 515.581 340.551C515.581 260.836 400.164 196.213 257.791 196.213C115.417 196.213 0 260.836 0 340.551C0 420.267 115.417 484.89 257.791 484.89Z" fill="#F0F0F0"/>
<path d="M405.839 390.634C388.934 381.169 388.934 365.826 405.839 356.362C422.743 346.897 450.152 346.897 467.056 356.362C483.961 365.826 483.961 381.169 467.056 390.634C450.152 400.099 422.743 400.099 405.839 390.634Z" fill="#E0E0E0"/>
<path d="M62.0159 391.95L17.55 367.057C15.0444 365.657 15.0444 363.375 17.55 361.975L276.194 217.159C277.6 216.468 279.153 216.108 280.729 216.108C282.305 216.108 283.859 216.468 285.265 217.159L329.741 242.052C332.247 243.452 332.247 245.734 329.741 247.134L71.0973 391.95C69.6897 392.641 68.1342 393.001 66.5566 393.001C64.979 393.001 63.4235 392.641 62.0159 391.95Z" fill="#E0E0E0"/>
<path d="M221.848 347.576L260.077 326.142C264.016 323.935 265.986 321.049 265.986 318.152C265.986 315.255 265.986 312.995 265.986 312.995L226.334 291.307C225.226 290.612 224.304 289.673 223.642 288.567C222.981 287.46 222.598 286.218 222.526 284.941V239.219L155.784 276.632V322.333C155.861 323.609 156.245 324.85 156.907 325.955C157.568 327.061 158.487 328.001 159.591 328.699L193.335 347.544C201.191 351.99 213.97 351.99 221.848 347.576Z" fill="#E47A53"/>
<g opacity="0.6">
<path d="M221.848 347.576L260.077 326.142C264.016 323.935 265.986 321.049 265.986 318.152C265.986 315.255 265.986 312.995 265.986 312.995L226.334 291.307C225.226 290.612 224.304 289.673 223.642 288.567C222.981 287.46 222.598 286.218 222.526 284.941V239.219L155.784 276.632V322.333C155.861 323.609 156.245 324.85 156.907 325.955C157.568 327.061 158.487 328.001 159.591 328.699L193.335 347.544C201.191 351.99 213.97 351.99 221.848 347.576Z" fill="black"/>
</g>
<path opacity="0.3" d="M171.791 330.429V335.564L159.559 328.721C158.455 328.023 157.536 327.083 156.876 325.977C156.217 324.871 155.835 323.63 155.762 322.354V276.632L168.476 269.513C168.738 272.643 169.023 275.879 169.296 279.062L160.357 284.049V319.754C160.428 321.032 160.81 322.275 161.472 323.381C162.134 324.488 163.057 325.427 164.165 326.121L171.791 330.429Z" fill="black"/>
<path d="M160.357 319.765C160.433 321.041 160.816 322.283 161.478 323.389C162.139 324.495 163.06 325.434 164.165 326.131L193.291 342.408C201.169 346.812 213.948 346.822 221.837 342.408L260.132 320.975C268.021 316.561 268.021 309.409 260.132 304.995L230.984 288.718C229.882 288.019 228.964 287.079 228.304 285.973C227.645 284.867 227.262 283.627 227.188 282.352V246.636L160.445 284.049L160.357 319.765Z" fill="#E47A53"/>
<path opacity="0.3" d="M160.357 319.765C160.433 321.041 160.816 322.283 161.478 323.389C162.139 324.495 163.06 325.434 164.165 326.131L193.291 342.408C201.169 346.812 213.948 346.822 221.837 342.408L260.132 320.975C268.021 316.561 268.021 309.409 260.132 304.995L230.984 288.718C229.882 288.019 228.964 287.079 228.304 285.973C227.645 284.867 227.262 283.627 227.188 282.352V246.636L160.445 284.049L160.357 319.765Z" fill="black"/>
<path opacity="0.5" d="M238.698 293.079L230.94 288.739C229.838 288.04 228.92 287.1 228.26 285.994C227.601 284.889 227.219 283.648 227.144 282.373V246.636L160.401 284.049V319.765C160.476 321.041 160.86 322.283 161.522 323.389C162.183 324.495 163.104 325.434 164.209 326.131L171.868 330.376L238.698 293.079Z" fill="black"/>
<path d="M265.997 313.006V318.163C265.997 321.06 264.016 323.935 260.088 326.153L221.793 347.576C217.602 349.745 212.922 350.872 208.171 350.855V345.719C212.922 345.736 217.602 344.61 221.793 342.44L260.088 320.996C264.016 318.799 265.997 315.903 265.997 313.006Z" fill="#E47A53"/>
<path opacity="0.5" d="M265.997 313.006V318.163C265.997 321.06 264.016 323.935 260.088 326.153L221.793 347.576C217.602 349.745 212.922 350.872 208.171 350.855V345.719C212.922 345.736 217.602 344.61 221.793 342.44L260.088 320.996C264.016 318.799 265.997 315.903 265.997 313.006Z" fill="black"/>
<path d="M53.1315 364.15C54.5744 364.826 56.1608 365.163 57.7629 365.136C59.365 365.108 60.938 364.716 62.3551 363.991L320.572 219.419C321.957 218.543 323.109 217.364 323.936 215.975C324.763 214.587 325.241 213.03 325.332 211.429V8.84869C325.283 7.29143 324.854 5.76753 324.082 4.40118C323.31 3.03482 322.217 1.86469 320.89 0.986123C319.449 0.309534 317.863 -0.0277184 316.262 0.0017814C314.662 0.0312812 313.091 0.4267 311.677 1.15589L53.4598 145.77C52.08 146.651 50.9346 147.836 50.117 149.228C49.2994 150.621 48.8327 152.181 48.7549 153.781V356.33C48.8038 357.874 49.2251 359.386 49.9851 360.744C50.7451 362.102 51.8227 363.269 53.1315 364.15Z" fill="#E47A53"/>
<path d="M62.3879 363.98L320.605 219.409C321.992 218.535 323.145 217.355 323.973 215.967C324.8 214.578 325.277 213.02 325.365 211.419V8.84871C325.365 5.90953 323.231 4.71052 320.605 6.18541L62.3879 150.757C61.0028 151.632 59.8499 152.812 59.0229 154.2C58.196 155.588 57.7182 157.146 57.6284 158.747V361.317C57.6284 364.256 59.762 365.455 62.3879 363.98Z" fill="#E47A53"/>
<path opacity="0.5" d="M62.3879 363.98L320.605 219.409C321.992 218.535 323.145 217.355 323.973 215.967C324.8 214.578 325.277 213.02 325.365 211.419V8.84871C325.365 5.90953 323.231 4.71052 320.605 6.18541L62.3879 150.757C61.0028 151.632 59.8499 152.812 59.0229 154.2C58.196 155.588 57.7182 157.146 57.6284 158.747V361.317C57.6284 364.256 59.762 365.455 62.3879 363.98Z" fill="black"/>
<path d="M61.6877 369.243C60.3336 369.816 58.8675 370.098 57.3904 370.069C55.9133 370.039 54.4603 369.7 53.1315 369.073C51.8198 368.19 50.7404 367.02 49.9802 365.658C49.2201 364.296 48.8004 362.78 48.7549 361.232V342.79L57.6722 347.799V366.24C57.6175 368.925 59.3791 370.145 61.6877 369.243Z" fill="#E47A53"/>
<path opacity="0.5" d="M61.6877 369.243C60.3336 369.816 58.8675 370.098 57.3904 370.069C55.9133 370.039 54.4603 369.7 53.1315 369.073C51.8198 368.19 50.7404 367.02 49.9802 365.658C49.2201 364.296 48.8004 362.78 48.7549 361.232V342.79L57.6722 347.799V366.24C57.6175 368.925 59.3791 370.145 61.6877 369.243Z" fill="black"/>
<path d="M57.6175 347.799V366.24C57.6175 369.179 59.8058 370.368 62.377 368.903L320.594 224.332C321.973 223.46 323.122 222.287 323.949 220.907C324.775 219.527 325.256 217.978 325.354 216.384V197.858L57.6175 347.799Z" fill="#E47A53"/>
<path opacity="0.3" d="M57.6284 347.756V366.24C57.6284 369.179 59.8167 370.368 62.3879 368.903L320.605 224.332C321.982 223.459 323.129 222.286 323.953 220.905C324.778 219.525 325.258 217.977 325.354 216.384V197.858L57.6284 347.756Z" fill="black"/>
<path d="M66.5457 324.614V161.622C66.5966 160.662 66.8808 159.727 67.3752 158.894C67.8696 158.06 68.5601 157.352 69.3904 156.826L313.537 20.0855C315.113 19.2048 316.393 19.9157 316.393 21.6771V184.754C316.34 185.715 316.053 186.65 315.557 187.484C315.061 188.317 314.369 189.025 313.537 189.55L69.4014 326.259C67.8258 327.139 66.5457 326.418 66.5457 324.614Z" fill="#E47A53"/>
<path d="M66.5457 324.614V161.622C66.5966 160.662 66.8808 159.727 67.3752 158.894C67.8696 158.06 68.5601 157.352 69.3904 156.826L313.537 20.0855C315.113 19.2048 316.393 19.9157 316.393 21.6771V184.754C316.34 185.715 316.053 186.65 315.557 187.484C315.061 188.317 314.369 189.025 313.537 189.55L69.4014 326.259C67.8258 327.139 66.5457 326.418 66.5457 324.614Z" fill="#263238"/>
<path d="M191.486 278.701C190.186 279.521 189.104 280.627 188.329 281.929C187.553 283.23 187.105 284.691 187.022 286.193C187.022 288.951 189.024 290.076 191.486 288.697C192.787 287.876 193.869 286.769 194.645 285.465C195.421 284.161 195.868 282.698 195.95 281.195C195.95 278.436 193.947 277.322 191.486 278.701Z" fill="#E47A53"/>
<path opacity="0.7" d="M59.0289 154.184C58.181 155.566 57.6963 157.13 57.6175 158.736V347.799L48.7549 342.79V153.781C48.8124 152.169 49.2945 150.598 50.1554 149.218L59.0289 154.184Z" fill="black"/>
<path opacity="0.3" d="M325.31 8.08472C324.971 5.70791 322.99 4.90149 320.594 6.1854L62.377 150.757C60.977 151.606 59.8214 152.785 59.018 154.184L50.0898 149.187C50.8986 147.788 52.0575 146.609 53.4597 145.759L311.677 1.19834C313.093 0.469044 314.665 0.0736061 316.268 0.0441089C317.87 0.0146117 319.458 0.351886 320.901 1.02857C322.114 1.83006 323.135 2.87479 323.896 4.09213C324.656 5.30946 325.139 6.67102 325.31 8.08472Z" fill="black"/>
<path d="M339.238 33.0199C338.855 32.8332 338.426 32.7514 337.998 32.7832C337.57 32.815 337.159 32.9591 336.809 33.2003L93.1661 169.697C92.2047 170.314 91.4066 171.141 90.8364 172.113C90.2661 173.084 89.9397 174.172 89.8837 175.289V337.283C89.8495 337.83 89.9615 338.376 90.2088 338.869C90.4561 339.362 90.8302 339.784 91.2951 340.095C91.8313 340.382 94.6979 341.994 95.5513 342.44C95.8533 342.589 96.1907 342.658 96.529 342.639C96.8673 342.621 97.1944 342.515 97.477 342.334L341.066 205.837C342.027 205.221 342.825 204.393 343.395 203.421C343.966 202.45 344.292 201.362 344.348 200.245V37.4127C344.397 37.0013 344.327 36.5847 344.145 36.2099C343.963 35.835 343.678 35.5167 343.32 35.2906C342.773 34.9404 339.851 33.37 339.238 33.0199Z" fill="#E47A53"/>
<path d="M97.4224 171.989L341.077 35.5452C342.915 34.4842 344.359 35.3543 344.359 37.4127V200.245C344.303 201.362 343.977 202.45 343.406 203.421C342.836 204.393 342.038 205.221 341.077 205.837L97.4224 342.334C95.5842 343.395 94.14 341.687 94.14 339.628V177.581C94.1977 176.465 94.5248 175.377 95.0949 174.406C95.665 173.435 96.4622 172.607 97.4224 171.989Z" fill="#FAFAFA"/>
<path d="M342.565 36.1607C343.21 36.1607 343.309 36.9459 343.309 37.4128V200.245C343.25 201.18 342.967 202.089 342.483 202.899C341.998 203.71 341.326 204.4 340.519 204.914L96.8972 341.411C96.7337 341.514 96.5448 341.572 96.3501 341.581C95.7374 341.581 95.256 340.668 95.256 339.628V177.581C95.3088 176.646 95.583 175.736 96.0574 174.921C96.5318 174.105 97.1936 173.407 97.9913 172.88L341.624 36.4578C341.906 36.2814 342.23 36.179 342.565 36.1607ZM342.565 35.0996C342.037 35.1214 341.525 35.2749 341.077 35.5453L97.4224 171.989C96.4622 172.607 95.665 173.435 95.0949 174.406C94.5248 175.377 94.1977 176.465 94.14 177.581V339.628C94.14 341.262 95.0809 342.642 96.3282 342.642C96.7146 342.635 97.0921 342.528 97.4224 342.334L341.066 205.837C342.027 205.221 342.825 204.393 343.395 203.421C343.966 202.45 344.292 201.362 344.348 200.245V37.4128C344.348 35.9485 343.604 35.0996 342.51 35.0996H342.565Z" fill="#E0E0E0"/>
<path d="M91.2295 340.095C91.5906 340.276 94.1837 341.708 95.3216 342.345C94.913 342.016 94.5894 341.599 94.3766 341.127C94.1638 340.656 94.0678 340.142 94.0962 339.628V188.16L89.829 185.741V337.283C89.7937 337.829 89.904 338.375 90.1493 338.867C90.3946 339.36 90.7666 339.783 91.2295 340.095Z" fill="#F0F0F0"/>
<path d="M344.403 37.3809C344.403 35.3436 342.904 34.516 341.12 35.5452L97.4224 171.989C96.4622 172.607 95.665 173.435 95.0949 174.406C94.5248 175.377 94.1977 176.465 94.14 177.581V188.192L344.403 47.9917V37.3809Z" fill="#E47A53"/>
<g opacity="0.4">
<path d="M341.077 35.5453L97.4223 171.978C96.4445 172.576 95.6389 173.405 95.0809 174.387L90.8466 172C91.4036 171.052 92.2023 170.259 93.1661 169.697L336.809 33.2003C337.158 32.9575 337.569 32.8114 337.997 32.7778C338.425 32.7441 338.854 32.8242 339.238 33.0093C339.829 33.3701 342.598 34.8874 343.309 35.2588C342.941 35.1265 342.545 35.0834 342.156 35.1333C341.767 35.1833 341.396 35.3247 341.077 35.5453Z" fill="white"/>
</g>
<path opacity="0.15" d="M89.829 185.751V175.236C89.874 174.09 90.2246 172.975 90.8466 172L95.0919 174.376C94.4787 175.335 94.1354 176.432 94.0962 177.56V188.17L89.829 185.751Z" fill="black"/>
<path d="M293.022 159.532L147.096 241.235C146.387 241.681 145.796 242.284 145.372 242.994C144.948 243.704 144.703 244.501 144.656 245.32V285.895C144.703 286.715 144.948 287.512 145.372 288.221C145.796 288.931 146.387 289.534 147.096 289.981L151.353 292.357C152.109 292.728 152.945 292.922 153.793 292.922C154.64 292.922 155.476 292.728 156.232 292.357L302.136 210.655C302.846 210.206 303.437 209.601 303.861 208.889C304.285 208.178 304.53 207.379 304.576 206.559V165.973C304.53 165.154 304.285 164.357 303.861 163.647C303.437 162.937 302.846 162.334 302.136 161.888L297.869 159.511C297.116 159.146 296.285 158.957 295.443 158.961C294.601 158.965 293.772 159.16 293.022 159.532Z" fill="#E47A53"/>
<path opacity="0.5" d="M304.576 165.612C304.401 164.392 303.384 163.946 302.158 164.636L156.232 246.339C155.513 246.772 154.921 247.379 154.515 248.1L145.379 242.986C145.788 242.276 146.375 241.677 147.085 241.245L293.022 159.543C293.776 159.171 294.61 158.977 295.456 158.977C296.303 158.977 297.137 159.171 297.891 159.543L302.158 161.919C302.809 162.333 303.361 162.876 303.778 163.513C304.195 164.149 304.467 164.865 304.576 165.612Z" fill="white"/>
<path d="M155.817 292.559C155.102 292.832 154.336 292.956 153.569 292.923C152.802 292.89 152.05 292.701 151.364 292.368L147.096 289.991C146.388 289.543 145.798 288.94 145.374 288.231C144.95 287.521 144.704 286.725 144.656 285.906V245.331C144.689 244.502 144.938 243.696 145.379 242.986L154.515 248.1C154.071 248.801 153.822 249.602 153.793 250.424V291.01C153.793 292.357 154.668 292.983 155.817 292.559Z" fill="#263238"/>
<path d="M156.232 246.339L302.158 164.636C303.504 163.882 304.598 164.487 304.598 165.994V206.58C304.552 207.401 304.307 208.199 303.883 208.911C303.459 209.622 302.868 210.227 302.158 210.676L156.254 292.379C154.909 293.132 153.814 292.517 153.814 291.01V250.434C153.858 249.616 154.1 248.818 154.52 248.107C154.94 247.396 155.527 246.79 156.232 246.339Z" fill="#E47A53"/>
<path d="M254.333 181.199L147.107 241.245C146.397 241.677 145.81 242.276 145.4 242.986L154.537 248.1C154.943 247.379 155.535 246.772 156.254 246.339L263.48 186.303L254.333 181.199Z" fill="#455A64"/>
<path d="M263.458 186.303L156.232 246.339C155.523 246.787 154.932 247.392 154.508 248.104C154.084 248.815 153.839 249.614 153.793 250.434V290.999C153.793 292.506 154.887 293.121 156.232 292.368L263.458 232.332V186.303Z" fill="#37474F"/>
<path d="M180.96 241.394L236.291 210.421C238.578 209.137 240.438 210.05 240.438 212.458C240.335 213.811 239.905 215.121 239.183 216.283C238.461 217.444 237.466 218.424 236.28 219.143L180.96 250.127C178.673 251.41 176.802 250.498 176.802 248.089C176.906 246.735 177.336 245.424 178.058 244.261C178.78 243.098 179.774 242.116 180.96 241.394Z" fill="#E47A53"/>
<path d="M192.295 251.655C192.306 251.643 192.318 251.634 192.332 251.628C192.347 251.622 192.362 251.619 192.377 251.619C192.393 251.619 192.408 251.622 192.422 251.628C192.437 251.634 192.449 251.643 192.459 251.655C192.508 251.727 192.531 251.812 192.525 251.899V257.936C192.526 258.519 192.475 259.102 192.372 259.676C192.282 260.201 192.127 260.714 191.912 261.204C191.716 261.653 191.459 262.074 191.146 262.456C190.839 262.811 190.468 263.109 190.052 263.337C189.727 263.543 189.347 263.653 188.958 263.655C188.81 263.644 188.665 263.603 188.533 263.536C188.402 263.468 188.286 263.375 188.192 263.263C187.952 262.951 187.794 262.586 187.733 262.202C187.628 261.688 187.58 261.165 187.591 260.642V254.594C187.59 254.488 187.613 254.383 187.656 254.286C187.683 254.199 187.741 254.123 187.82 254.074L188.51 253.681C188.532 253.661 188.561 253.65 188.592 253.65C188.622 253.65 188.651 253.661 188.674 253.681C188.724 253.753 188.748 253.839 188.739 253.925V259.888C188.731 260.217 188.764 260.544 188.838 260.865C188.868 261.069 188.959 261.261 189.1 261.416C189.15 261.473 189.212 261.518 189.282 261.548C189.352 261.577 189.429 261.59 189.505 261.586C189.692 261.574 189.873 261.516 190.03 261.416C190.225 261.304 190.402 261.164 190.556 261.003C190.726 260.812 190.867 260.597 190.971 260.366C191.095 260.094 191.187 259.809 191.245 259.517C191.309 259.167 191.338 258.812 191.332 258.456V252.482C191.336 252.376 191.362 252.271 191.409 252.174C191.436 252.087 191.494 252.012 191.573 251.962L192.295 251.655Z" fill="#FAFAFA"/>
<path d="M196.584 257.363C196.59 257.285 196.571 257.207 196.53 257.14C196.504 257.113 196.471 257.091 196.435 257.079C196.399 257.066 196.36 257.061 196.322 257.066C196.188 257.048 196.051 257.048 195.917 257.066L195.282 257.183C195.078 257.232 194.864 257.232 194.659 257.183C194.498 257.133 194.359 257.032 194.265 256.896C194.158 256.724 194.087 256.533 194.057 256.334C193.95 255.766 193.95 255.183 194.057 254.615C194.139 254.289 194.256 253.973 194.407 253.671C194.557 253.369 194.74 253.084 194.954 252.822C195.161 252.571 195.413 252.359 195.698 252.196C195.928 252.06 196.186 251.973 196.453 251.941C196.647 251.922 196.843 251.962 197.011 252.058C197.172 252.153 197.298 252.294 197.372 252.461C197.46 252.659 197.509 252.871 197.514 253.087C197.526 253.194 197.503 253.301 197.449 253.395C197.422 253.482 197.364 253.557 197.285 253.607L196.628 253.978C196.598 253.995 196.564 254.004 196.53 254.004C196.495 254.004 196.461 253.995 196.431 253.978L196.289 253.872C196.232 253.829 196.164 253.803 196.092 253.798C195.951 253.813 195.816 253.86 195.698 253.936C195.526 254.036 195.374 254.166 195.25 254.318C195.117 254.485 195.048 254.691 195.053 254.901C195.037 254.982 195.037 255.065 195.053 255.145C195.074 255.175 195.101 255.2 195.133 255.219C195.165 255.237 195.201 255.248 195.239 255.252C195.358 255.271 195.48 255.271 195.6 255.252L196.212 255.145C196.727 255.05 197.077 255.145 197.307 255.421C197.548 255.814 197.659 256.27 197.624 256.726C197.621 257.042 197.577 257.356 197.493 257.66C197.406 257.991 197.281 258.311 197.121 258.615C196.96 258.929 196.758 259.222 196.519 259.485C196.292 259.743 196.022 259.962 195.72 260.133C195.48 260.282 195.206 260.373 194.921 260.398C194.716 260.405 194.513 260.349 194.341 260.239C194.173 260.127 194.043 259.968 193.969 259.782C193.881 259.581 193.836 259.364 193.838 259.146C193.828 259.036 193.851 258.925 193.904 258.827C193.931 258.74 193.989 258.665 194.068 258.615L194.724 258.244C194.812 258.244 194.878 258.191 194.921 258.244L195.064 258.392C195.093 258.424 195.128 258.45 195.167 258.468C195.207 258.486 195.25 258.496 195.293 258.498C195.447 258.499 195.597 258.451 195.72 258.361C195.918 258.252 196.095 258.112 196.245 257.947C196.32 257.859 196.382 257.763 196.431 257.66C196.509 257.576 196.561 257.474 196.584 257.363Z" fill="#FAFAFA"/>
<path d="M198.816 254.488C198.814 253.936 198.862 253.386 198.959 252.843C199.05 252.332 199.193 251.831 199.385 251.347C199.546 250.913 199.767 250.503 200.042 250.127C200.271 249.803 200.57 249.532 200.917 249.331C201.171 249.165 201.48 249.101 201.782 249.15C202.049 249.21 202.283 249.366 202.438 249.585C202.644 249.873 202.789 250.198 202.865 250.54C202.97 250.986 203.021 251.442 203.018 251.899V252.556C203.021 252.667 202.995 252.777 202.941 252.875C202.915 252.962 202.856 253.038 202.777 253.087L199.932 254.689C199.926 254.876 199.952 255.063 200.009 255.241C200.051 255.361 200.127 255.468 200.228 255.549C200.318 255.618 200.431 255.652 200.545 255.644C200.677 255.629 200.804 255.586 200.917 255.517C201.083 255.43 201.231 255.315 201.355 255.177C201.467 255.055 201.562 254.92 201.639 254.774C201.686 254.69 201.737 254.609 201.792 254.53C201.839 254.476 201.895 254.43 201.957 254.392L202.635 254.01C202.658 253.992 202.687 253.982 202.717 253.982C202.747 253.982 202.776 253.992 202.799 254.01C202.828 254.044 202.849 254.083 202.86 254.125C202.871 254.167 202.873 254.211 202.865 254.254C202.853 254.461 202.809 254.665 202.733 254.859C202.639 255.153 202.514 255.438 202.361 255.708C202.19 256.018 201.985 256.31 201.749 256.578C201.513 256.851 201.232 257.084 200.917 257.268C200.659 257.432 200.349 257.503 200.042 257.469C199.773 257.407 199.538 257.247 199.385 257.024C199.17 256.702 199.025 256.341 198.959 255.962C198.859 255.477 198.812 254.983 198.816 254.488ZM200.917 251.103C200.749 251.191 200.603 251.314 200.49 251.464C200.369 251.612 200.27 251.776 200.195 251.952C200.118 252.127 200.056 252.308 200.009 252.493C199.971 252.66 199.945 252.831 199.932 253.002L201.858 251.941C201.847 251.795 201.825 251.649 201.792 251.506C201.776 251.378 201.723 251.257 201.639 251.156C201.607 251.11 201.564 251.071 201.515 251.042C201.466 251.013 201.412 250.994 201.355 250.986C201.199 250.973 201.044 251.015 200.917 251.103Z" fill="#FAFAFA"/>
<path d="M206.454 248.142C206.122 248.326 205.861 248.609 205.709 248.949C205.539 249.397 205.461 249.872 205.48 250.349V254.18C205.481 254.289 205.459 254.398 205.414 254.498C205.387 254.586 205.329 254.661 205.25 254.71L204.604 255.071C204.594 255.082 204.582 255.091 204.567 255.098C204.553 255.104 204.538 255.107 204.522 255.107C204.507 255.107 204.491 255.104 204.477 255.098C204.463 255.091 204.451 255.082 204.44 255.071C204.391 254.999 204.368 254.913 204.375 254.827V247.962C204.375 247.853 204.397 247.745 204.44 247.644C204.471 247.558 204.528 247.484 204.604 247.431L205.25 247.071C205.272 247.051 205.302 247.039 205.332 247.039C205.362 247.039 205.392 247.051 205.414 247.071C205.465 247.138 205.488 247.221 205.48 247.304V247.644C205.61 247.359 205.772 247.089 205.961 246.837C206.134 246.605 206.358 246.413 206.618 246.275L207.012 246.052C207.032 246.033 207.059 246.022 207.088 246.022C207.117 246.022 207.144 246.033 207.165 246.052C207.218 246.123 207.244 246.209 207.241 246.296V247.262C207.239 247.372 207.213 247.48 207.165 247.58C207.137 247.664 207.084 247.738 207.012 247.792L206.454 248.142Z" fill="#FAFAFA"/>
<path d="M214.616 247.633C214.626 247.622 214.639 247.613 214.653 247.606C214.667 247.6 214.682 247.597 214.698 247.597C214.713 247.597 214.729 247.6 214.743 247.606C214.757 247.613 214.77 247.622 214.78 247.633C214.829 247.705 214.852 247.791 214.846 247.877V248.938C214.845 249.047 214.823 249.155 214.78 249.256C214.742 249.335 214.686 249.404 214.616 249.458L210.874 251.58C210.852 251.6 210.822 251.612 210.792 251.612C210.761 251.612 210.732 251.6 210.71 251.58C210.661 251.512 210.638 251.43 210.644 251.347V241.797C210.645 241.688 210.667 241.58 210.71 241.479C210.74 241.396 210.798 241.325 210.874 241.277L211.563 240.885C211.585 240.864 211.615 240.853 211.645 240.853C211.676 240.853 211.705 240.864 211.727 240.885C211.776 240.953 211.799 241.035 211.793 241.118V249.193L214.616 247.633Z" fill="#FAFAFA"/>
<path d="M217.975 239.781C218.221 239.616 218.519 239.537 218.817 239.558C219.074 239.578 219.312 239.692 219.485 239.877C219.689 240.104 219.838 240.372 219.922 240.662C220.039 241.037 220.106 241.426 220.119 241.818C220.119 241.903 220.119 242.02 220.119 242.158V242.975C220.119 243.102 220.119 243.219 220.119 243.314C220.098 243.776 220.032 244.234 219.922 244.683C219.821 245.121 219.675 245.548 219.485 245.957C219.311 246.337 219.087 246.694 218.817 247.018C218.587 247.311 218.301 247.559 217.975 247.75C217.722 247.909 217.423 247.987 217.121 247.973C216.869 247.951 216.634 247.838 216.465 247.654C216.255 247.435 216.105 247.169 216.027 246.88C215.91 246.504 215.844 246.115 215.83 245.723C215.83 245.638 215.83 245.532 215.83 245.394V244.577C215.83 244.439 215.83 244.323 215.83 244.238C215.843 243.773 215.905 243.311 216.016 242.858C216.123 242.417 216.273 241.987 216.465 241.574C216.639 241.196 216.859 240.84 217.121 240.513C217.353 240.217 217.643 239.968 217.975 239.781ZM219.003 242.519C219.003 242.284 218.962 242.051 218.883 241.829C218.842 241.694 218.758 241.575 218.642 241.489C218.549 241.429 218.436 241.402 218.325 241.415C218.2 241.438 218.081 241.485 217.975 241.553C217.846 241.621 217.728 241.707 217.625 241.808C217.499 241.934 217.392 242.077 217.307 242.232C217.197 242.425 217.116 242.632 217.067 242.848C216.995 243.119 216.951 243.396 216.935 243.675C216.935 243.76 216.935 243.856 216.935 243.972V244.726C216.935 244.842 216.935 244.938 216.935 245.002C216.946 245.236 216.99 245.468 217.067 245.691C217.107 245.827 217.191 245.946 217.307 246.031C217.353 246.062 217.405 246.084 217.459 246.095C217.514 246.106 217.57 246.106 217.625 246.094C217.749 246.074 217.868 246.031 217.975 245.967C218.102 245.896 218.219 245.811 218.325 245.713C218.447 245.583 218.554 245.441 218.642 245.288C218.748 245.093 218.828 244.886 218.883 244.673C218.954 244.402 218.995 244.124 219.003 243.845C219.01 243.746 219.01 243.647 219.003 243.548V242.805C219.01 242.71 219.01 242.614 219.003 242.519Z" fill="#FAFAFA"/>
<path d="M223.467 245.988C223.607 245.905 223.733 245.802 223.839 245.681C223.971 245.531 224.085 245.367 224.179 245.193C224.287 244.979 224.372 244.755 224.43 244.524C224.498 244.264 224.531 243.996 224.529 243.728V243.187C224.529 243.293 224.419 243.421 224.343 243.569C224.268 243.724 224.18 243.873 224.08 244.015C223.966 244.164 223.842 244.306 223.708 244.439C223.571 244.579 223.412 244.697 223.238 244.789C223.125 244.864 222.998 244.915 222.865 244.941C222.731 244.966 222.594 244.965 222.461 244.938C222.218 244.864 222.009 244.71 221.87 244.503C221.692 244.229 221.562 243.927 221.487 243.612C221.394 243.211 221.342 242.802 221.334 242.391C221.334 242.253 221.334 242.084 221.334 241.882C221.334 241.68 221.334 241.511 221.334 241.362C221.348 240.896 221.399 240.431 221.487 239.972C221.577 239.52 221.705 239.077 221.87 238.646C222.025 238.271 222.223 237.915 222.461 237.585C222.663 237.292 222.928 237.046 223.238 236.863C223.383 236.778 223.542 236.717 223.708 236.683C223.831 236.661 223.957 236.661 224.08 236.683C224.177 236.709 224.267 236.756 224.343 236.821C224.413 236.873 224.475 236.933 224.529 237.001V236.662C224.529 236.552 224.552 236.444 224.594 236.343C224.625 236.26 224.683 236.19 224.759 236.142L225.404 235.77C225.426 235.75 225.456 235.739 225.486 235.739C225.517 235.739 225.546 235.75 225.568 235.77C225.621 235.841 225.648 235.927 225.645 236.014V242.911C225.674 243.944 225.477 244.972 225.065 245.925C224.742 246.674 224.183 247.306 223.467 247.729C223.223 247.875 222.945 247.959 222.658 247.973C222.431 247.986 222.205 247.93 222.012 247.813C221.827 247.679 221.677 247.505 221.575 247.304C221.468 247.062 221.409 246.803 221.4 246.54C221.389 246.43 221.412 246.32 221.465 246.222C221.492 246.134 221.55 246.059 221.629 246.01L222.209 245.691C222.222 245.677 222.239 245.666 222.256 245.659C222.274 245.651 222.294 245.647 222.313 245.647C222.333 245.647 222.352 245.651 222.37 245.659C222.388 245.666 222.404 245.677 222.417 245.691C222.471 245.746 222.519 245.807 222.559 245.872C222.626 245.985 222.736 246.069 222.866 246.105C222.997 246.201 223.194 246.094 223.467 245.988ZM222.439 240.842C222.439 241.125 222.439 241.401 222.439 241.67C222.408 242.094 222.532 242.514 222.789 242.858C222.886 242.94 223.011 242.984 223.139 242.984C223.268 242.984 223.392 242.94 223.489 242.858C223.807 242.658 224.055 242.37 224.201 242.031C224.4 241.588 224.511 241.113 224.529 240.63C224.529 240.471 224.529 240.28 224.529 240.057C224.529 239.834 224.529 239.643 224.529 239.505C224.551 239.125 224.435 238.75 224.201 238.444C224.104 238.358 223.977 238.31 223.845 238.31C223.713 238.31 223.586 238.358 223.489 238.444C223.178 238.644 222.934 238.928 222.789 239.261C222.564 239.76 222.445 240.298 222.439 240.842Z" fill="#FAFAFA"/>
<path d="M228.194 231.42C228.216 231.403 228.243 231.393 228.271 231.393C228.299 231.393 228.326 231.403 228.347 231.42C228.405 231.488 228.432 231.576 228.424 231.664V232.82C228.425 232.931 228.398 233.04 228.347 233.139C228.317 233.218 228.264 233.288 228.194 233.34L227.461 233.754C227.451 233.765 227.438 233.775 227.424 233.781C227.41 233.787 227.394 233.79 227.379 233.79C227.363 233.79 227.348 233.787 227.334 233.781C227.32 233.775 227.307 233.765 227.297 233.754C227.268 233.722 227.247 233.685 227.234 233.645C227.22 233.605 227.216 233.563 227.22 233.521V232.364C227.22 232.254 227.246 232.145 227.297 232.046C227.327 231.963 227.385 231.892 227.461 231.844L228.194 231.42ZM228.38 241.383C228.38 241.489 228.358 241.594 228.314 241.691C228.28 241.774 228.223 241.847 228.15 241.903L227.494 242.264C227.485 242.275 227.473 242.284 227.46 242.29C227.446 242.296 227.432 242.299 227.417 242.299C227.403 242.299 227.388 242.296 227.375 242.29C227.362 242.284 227.35 242.275 227.341 242.264C227.283 242.195 227.256 242.108 227.264 242.02V235.155C227.263 235.044 227.29 234.935 227.341 234.836C227.372 234.754 227.424 234.681 227.494 234.624L228.15 234.264C228.173 234.243 228.202 234.232 228.232 234.232C228.263 234.232 228.292 234.243 228.314 234.264C228.363 234.332 228.387 234.414 228.38 234.497V241.383Z" fill="#FAFAFA"/>
<path d="M234.135 238.147C234.135 238.256 234.112 238.364 234.07 238.465C234.039 238.548 233.981 238.619 233.906 238.667L233.249 239.038C233.229 239.058 233.201 239.069 233.172 239.069C233.144 239.069 233.116 239.058 233.096 239.038C233.039 238.97 233.011 238.882 233.019 238.794V235.059C233.053 234.618 232.97 234.177 232.779 233.775C232.625 233.51 232.385 233.468 232.046 233.659C231.707 233.879 231.456 234.205 231.334 234.582C231.152 235.082 231.063 235.611 231.072 236.142V239.887C231.071 239.996 231.049 240.104 231.006 240.206C230.979 240.293 230.921 240.368 230.842 240.418L230.196 240.779C230.186 240.79 230.174 240.799 230.159 240.805C230.145 240.811 230.13 240.814 230.114 240.814C230.099 240.814 230.083 240.811 230.069 240.805C230.055 240.799 230.043 240.79 230.032 240.779C229.982 240.711 229.958 240.628 229.967 240.545V233.68C229.965 233.571 229.987 233.462 230.032 233.362C230.059 233.274 230.117 233.199 230.196 233.149L230.842 232.789C230.852 232.777 230.865 232.768 230.879 232.762C230.893 232.756 230.908 232.753 230.924 232.753C230.94 232.753 230.955 232.756 230.969 232.762C230.983 232.768 230.996 232.777 231.006 232.789C231.055 232.861 231.078 232.947 231.072 233.033V233.362C231.216 233.038 231.392 232.729 231.597 232.438C231.777 232.171 232.021 231.949 232.308 231.791C232.557 231.615 232.867 231.539 233.172 231.579C233.294 231.609 233.407 231.663 233.505 231.738C233.603 231.813 233.684 231.907 233.741 232.014C233.9 232.301 234.004 232.614 234.048 232.937C234.106 233.359 234.135 233.785 234.135 234.21V238.147Z" fill="#FAFAFA"/>
<path d="M289.324 207.259L278.7 213.201L280.352 198.749C279.072 198.091 278.262 196.489 278.262 194.187C278.262 190.08 280.844 185.316 284.017 183.576C287.19 181.836 289.761 183.682 289.761 187.82C289.696 190.255 288.979 192.631 287.683 194.717L289.324 207.259Z" fill="#455A64"/>
<path d="M289.335 207.259L279.98 202.028L278.7 213.212L289.335 207.259Z" fill="#37474F"/>
<path d="M283.995 183.544C281.682 185.06 279.956 187.282 279.094 189.857L287.661 194.654C288.958 192.568 289.674 190.191 289.74 187.757C289.761 183.65 287.19 181.772 283.995 183.544Z" fill="#37474F"/>
<path d="M232.352 135.424C228.708 133.387 223.686 133.674 218.128 136.783C207.033 143 198.04 158.1 198.04 170.525C198.04 176.764 200.315 181.135 203.97 183.152L211.049 187.141C214.681 189.178 219.704 188.881 225.273 185.772C236.367 179.565 245.361 164.455 245.361 152.03C245.361 145.823 243.107 141.419 239.475 139.435" fill="#E47A53"/>
<path d="M225.262 140.783C214.167 147.001 205.173 162.11 205.173 174.525C205.173 186.94 214.167 191.99 225.262 185.772C236.356 179.554 245.361 164.455 245.35 152.03C245.339 139.605 236.345 134.575 225.262 140.783Z" fill="#E47A53"/>
<path d="M236.345 168.35V169.771C233.688 174.372 229.875 178.248 225.262 181.04C220.94 183.449 217.034 183.714 214.167 182.175V179.247C214.314 176.2 215.211 173.231 216.783 170.59C218.356 167.948 220.558 165.71 223.205 164.063L226.126 162.429C228.708 160.986 231.225 160.795 233.194 161.909C235.164 163.023 236.345 165.368 236.345 168.35Z" fill="#E47A53"/>
<path opacity="0.4" d="M232.352 135.424L239.464 139.435C235.831 137.387 230.809 137.674 225.24 140.783C217.975 144.857 211.607 152.741 208.084 161.187L200.961 157.187C204.495 148.698 210.808 140.857 218.117 136.782C223.697 133.684 228.719 133.387 232.352 135.424Z" fill="white"/>
<path opacity="0.2" d="M210.797 186.982L203.981 183.151C200.326 181.135 198.051 176.785 198.051 170.525L205.173 174.536C205.217 180.584 207.318 184.892 210.797 186.982Z" fill="black"/>
<path opacity="0.1" d="M200.983 157.187L208.106 161.187C206.281 165.416 205.3 169.942 205.217 174.525L198.094 170.514C198.182 165.935 199.162 161.413 200.983 157.187Z" fill="black"/>
<path d="M222.723 161.76C222.045 161.767 221.376 161.599 220.787 161.272C220.076 160.813 219.507 160.176 219.139 159.429C218.772 158.682 218.619 157.852 218.697 157.028C218.79 155.095 219.359 153.211 220.356 151.535C221.354 149.859 222.751 148.438 224.43 147.393C225.105 146.871 225.926 146.558 226.787 146.496C227.648 146.434 228.508 146.625 229.256 147.044C230.003 147.464 230.602 148.092 230.975 148.848C231.347 149.603 231.477 150.449 231.345 151.277C231.251 153.21 230.681 155.092 229.684 156.768C228.686 158.444 227.29 159.865 225.612 160.911C224.743 161.437 223.747 161.73 222.723 161.76Z" fill="white"/>
<path d="M233.194 161.898C231.225 160.784 228.708 160.975 226.126 162.418L223.205 164.052C220.556 165.7 218.353 167.94 216.781 170.584C215.209 173.227 214.312 176.198 214.167 179.247V182.186C217.034 183.724 220.94 183.459 225.262 181.051C229.875 178.259 233.688 174.383 236.345 169.782V168.36C236.345 165.368 235.208 163.023 233.194 161.898Z" fill="white"/>
<path d="M458.128 345.464C458.128 345.464 459.583 333.071 465.94 323.447C472.297 313.823 481.028 307.828 489.18 307.202C497.331 306.576 503.918 313.855 495.197 318.874C486.477 323.893 470.984 328.965 463.85 347.64L458.128 345.464Z" fill="#E47A53"/>
<path opacity="0.1" d="M458.128 345.464C458.128 345.464 459.583 333.071 465.94 323.447C472.297 313.823 481.028 307.828 489.18 307.202C497.331 306.576 503.918 313.855 495.197 318.874C486.477 323.893 470.984 328.965 463.85 347.64L458.128 345.464Z" fill="black"/>
<path d="M460.524 342.239H460.436C460.329 342.196 460.244 342.114 460.199 342.011C460.153 341.908 460.152 341.791 460.196 341.687C468.796 321.155 485.164 312.571 492.626 310.916C492.682 310.903 492.74 310.901 492.797 310.911C492.854 310.92 492.908 310.94 492.957 310.969C493.005 310.999 493.048 311.037 493.081 311.083C493.115 311.128 493.138 311.18 493.151 311.234C493.164 311.288 493.166 311.345 493.156 311.4C493.147 311.455 493.126 311.507 493.096 311.555C493.065 311.602 493.026 311.643 492.979 311.675C492.932 311.708 492.879 311.731 492.823 311.743C485.514 313.377 469.463 321.802 461.005 342.016C460.963 342.1 460.893 342.169 460.805 342.209C460.718 342.25 460.618 342.26 460.524 342.239Z" fill="white"/>
<path d="M504.049 342.483C503.316 344.096 501.5 344.944 499.815 345.602C498.13 346.26 496.292 346.971 495.372 348.499C493.534 351.576 496.554 355.927 494.585 358.908C494.121 359.508 493.537 360.012 492.867 360.387C492.198 360.763 491.457 361.003 490.69 361.094C489.431 361.317 488.151 361.317 486.882 361.423C486.274 361.415 485.667 361.369 485.066 361.285C483.298 360.902 481.449 361.092 479.803 361.826C477.275 363.205 476.52 366.293 474.967 368.681C474.017 370.086 472.766 371.277 471.299 372.17C469.832 373.064 468.183 373.64 466.465 373.859C465.371 373.997 463.183 374.198 462.089 373.572C462.003 373.531 461.922 373.482 461.848 373.424C461.684 373.254 461.487 373.031 461.399 372.914C461.394 372.89 461.394 372.865 461.399 372.84C460.951 371.238 461.684 369.583 461.717 367.927V367.63C461.64 365.71 461.585 363.8 461.542 361.89C461.447 358.353 461.41 354.816 461.432 351.279C461.432 348.987 461.17 346.483 462.176 344.329C463.27 341.952 466.028 341.899 467.067 339.575C467.483 338.642 467.702 337.655 468.106 336.71C468.732 335.337 469.734 334.157 471.004 333.299C472.273 332.44 473.761 331.935 475.306 331.84C480.109 331.607 484.409 335.373 489.212 335.023C490.449 334.928 491.663 334.556 492.889 334.344C496.773 333.633 501.27 334.705 503.458 337.899C503.938 338.557 504.244 339.319 504.347 340.119C504.45 340.919 504.347 341.731 504.049 342.483Z" fill="#E47A53"/>
<path d="M460.918 365.487C460.814 365.457 460.727 365.39 460.674 365.299C460.621 365.208 460.606 365.1 460.633 364.999C467.264 340.87 493.458 337.411 499.618 337.814C499.672 337.817 499.725 337.83 499.774 337.853C499.823 337.876 499.866 337.908 499.902 337.948C499.938 337.987 499.965 338.033 499.982 338.083C499.999 338.133 500.005 338.186 500.001 338.238C499.99 338.342 499.938 338.437 499.856 338.504C499.775 338.571 499.67 338.605 499.563 338.599C493.556 338.185 467.909 341.591 461.421 365.211C461.391 365.311 461.321 365.396 461.227 365.448C461.133 365.499 461.022 365.513 460.918 365.487Z" fill="white"/>
<path d="M490.055 353.263C489.972 353.252 489.895 353.215 489.836 353.157C487.414 351.122 484.559 349.63 481.475 348.788C478.39 347.946 475.151 347.775 471.991 348.287C471.884 348.296 471.778 348.267 471.693 348.204C471.607 348.141 471.55 348.049 471.531 347.947C471.515 347.843 471.542 347.737 471.605 347.652C471.668 347.567 471.764 347.509 471.87 347.491C475.167 346.959 478.544 347.14 481.76 348.023C484.976 348.905 487.95 350.466 490.471 352.595C490.509 352.631 490.54 352.675 490.561 352.723C490.582 352.772 490.593 352.824 490.593 352.876C490.593 352.928 490.582 352.98 490.561 353.029C490.54 353.077 490.509 353.121 490.471 353.157C490.421 353.214 490.355 353.255 490.28 353.274C490.206 353.293 490.127 353.289 490.055 353.263Z" fill="white"/>
<path d="M397.917 54.0399L401.397 55.3344V47.9068C401.397 42.0073 406.244 40.596 411.507 43.5458C416.78 46.4956 421.047 53.6579 421.047 59.5575V60.6185C421.781 60.4012 422.556 60.3475 423.313 60.4614C424.071 60.5753 424.793 60.8539 425.424 61.2764C427.422 62.5401 429.085 64.2432 430.277 66.2473C431.469 68.2514 432.157 70.5 432.284 72.8103V73.2984L437.142 76.0147C438.457 76.8467 439.55 77.967 440.335 79.285C441.12 80.603 441.575 82.0817 441.661 83.6014C441.661 86.4027 439.637 87.538 437.142 86.1374L397.917 64.1625C396.602 63.3325 395.508 62.2124 394.725 60.8938C393.941 59.5753 393.49 58.0956 393.409 56.5758C393.409 53.7852 395.412 52.6499 397.917 54.0399Z" fill="#EE9191"/>
<path d="M444.517 48.1615L450.83 51.6948C450.795 51.4273 450.777 51.158 450.775 50.8884V49.1164C450.775 45.9332 453.051 44.6811 455.874 46.2621C457.087 46.9824 458.125 47.9489 458.916 49.0952C459.375 45.1268 462.592 43.6519 466.487 45.8271C468.713 47.2317 470.567 49.1251 471.897 51.3538C473.228 53.5826 473.998 56.0841 474.146 58.6555V61.3082C474.174 62.3681 473.954 63.4203 473.501 64.3853L478.753 67.3139C479.571 67.8403 480.251 68.5455 480.737 69.373C481.224 70.2004 481.503 71.1269 481.554 72.0781C481.554 73.8289 480.284 74.5398 478.72 73.6697L444.517 54.5704C443.69 54.0477 443.002 53.3426 442.509 52.5127C442.017 51.6829 441.733 50.7518 441.683 49.7955C441.683 48.0023 442.952 47.2914 444.517 48.1615Z" fill="#EE9191"/>
<path d="M420.074 209.201C415.478 216.735 411.058 223.281 407.951 226.422C402.053 229.075 388.201 233.171 382.785 233.85C381.834 233.967 380.871 233.749 380.072 233.234C377.938 231.876 376.286 231.653 374.043 230.9C372.282 230.316 371.538 229.499 371.209 229.839C370.87 230.224 370.7 230.723 370.735 231.228C370.769 231.734 371.007 232.206 371.395 232.545C372.237 233.32 373.17 233.997 374.175 234.561C371.772 235.139 369.266 235.182 366.844 234.688C362.15 233.489 359.94 235.675 363.113 240.619C364.207 242.381 368.715 245.214 377.774 244.45C381.006 244.281 384.225 243.927 387.414 243.389C396.101 241.585 405.762 239.845 411.704 238.083C413.914 237.241 415.891 235.911 417.481 234.2C427.47 223.154 430.785 215.281 435.162 208.129L434.79 196.457C427.7 196.224 423.914 202.898 420.074 209.201Z" fill="#F2BEAB"/>
<path d="M436.004 196.224C433.949 195.944 431.853 196.214 429.944 197.005C428.035 197.796 426.385 199.078 425.172 200.712C420.314 206.75 411.714 221.244 411.714 221.244C411.714 221.244 414.526 228.513 422.12 229.733L434.319 213.753C434.319 213.753 440.096 202.654 436.004 196.224Z" fill="#455A64"/>
<path d="M462.384 359.142H454.43V372.893H462.384V359.142Z" fill="#FFA8A7"/>
<path d="M434.812 358.409L426.868 358.685L426.463 344.127L434.812 343.852V358.409Z" fill="#FFA8A7"/>
<path d="M463.5 240.099C463.5 247.76 462.34 309.483 462.34 309.483C462.515 311.69 464.529 315.765 464.124 324.243C463.522 335.755 462.723 366.017 462.723 366.017C461.358 366.695 459.851 367.062 458.318 367.092C456.784 367.121 455.264 366.812 453.872 366.187C453.872 366.187 447.416 323.744 445.994 312.38C444.747 302.416 441.552 269.438 441.552 269.438L437.252 308.422C438.163 312.605 438.494 316.887 438.236 321.155C437.864 326.46 435.304 353.921 435.304 353.921C433.93 354.707 432.389 355.18 430.799 355.303C429.208 355.426 427.61 355.197 426.124 354.632C426.124 354.632 421.595 313.25 421.507 308.39C421.398 302.873 424.155 240.036 424.155 240.036L463.5 240.099Z" fill="#37474F"/>
<path d="M454.43 368.925V367.779C453.664 368.108 451.902 374.92 448.74 377.827C446.235 380.14 442.821 382.804 441.946 385.382C441.07 387.96 446.705 389.541 449.057 389.128C451.771 388.639 456.498 386.698 457.679 384.883C458.861 383.069 459.419 380.437 460.382 379.122C461.345 377.806 463.566 376.342 464.08 374.814C464.24 373.384 464.088 371.938 463.631 370.569C463.259 369.147 462.866 367.588 462.384 367.726V368.596C461.263 369.488 459.852 369.969 458.401 369.954C457.242 370.049 454.419 369.816 454.43 368.925Z" fill="#263238"/>
<path d="M426.781 356.202C426.365 356.202 426.026 356.807 425.118 357.805C423.767 359.182 422.188 360.33 420.446 361.2C417.47 362.707 411.693 365.02 409.056 366.219C407.415 366.962 407.491 368.957 409.187 370.092C410.883 371.227 414.964 372.044 419.866 370.941C422.536 370.336 426.015 367.842 428.225 367.98C430.435 368.118 434.538 368.076 436.169 366.919C437.799 365.763 437.142 363.365 436.683 361.296C436.179 359.025 435.589 355.491 434.812 355.651V356.446C433.86 357.911 428.925 358.505 426.825 357.433L426.781 356.202Z" fill="#263238"/>
<path d="M441.552 269.438C437.414 268.125 433.631 265.931 430.479 263.019C430.479 263.019 432.667 267.061 438.97 270.828L437.613 305.642L441.552 269.438Z" fill="#263238"/>
<path d="M459.058 197.349C459.058 197.349 465.623 198.813 465.152 210.315L463.785 228.619V256.101C457.942 262.531 432.055 262.064 423.137 255.591C423.137 255.591 424.144 223.069 424.746 210.549C425.172 201.657 427.284 197.179 436.3 196.203L447.383 196.67L459.058 197.349Z" fill="#EB9C7F"/>
<path d="M450.699 173.453C450.736 174.993 450.46 176.525 449.884 177.961C449.308 179.396 448.445 180.707 447.345 181.818C446.244 182.929 444.928 183.817 443.472 184.432C442.016 185.047 440.448 185.376 438.86 185.401C432.295 185.401 428.444 179.905 427.022 173.453C424.396 161.644 432.317 161.495 438.86 161.495C442.065 161.559 445.112 162.855 447.332 165.097C449.552 167.34 450.763 170.345 450.699 173.453Z" fill="#263238"/>
<path d="M456.738 178.281C456.738 178.281 454.922 186.897 454.189 188.319C453.728 189.175 452.944 189.825 452.001 190.133L452.132 184.075L456.738 178.281Z" fill="#263238"/>
<path d="M454.452 165.941C454.452 165.941 455.754 165.623 457.143 167.724C458.325 169.517 458.598 173.549 456.738 178.334L453.314 178.738L454.452 165.941Z" fill="#263238"/>
<path d="M455.71 167.692L459.911 167.766C459.94 167.503 459.912 167.236 459.83 166.984C459.748 166.731 459.612 166.498 459.432 166.299C459.253 166.1 459.032 165.939 458.785 165.826C458.538 165.713 458.27 165.651 457.997 165.644C457.422 165.652 456.871 165.865 456.449 166.243C456.027 166.621 455.764 167.137 455.71 167.692Z" fill="#263238"/>
<path d="M456.224 166.726L459.331 163.829C459.152 163.625 458.932 163.458 458.683 163.34C458.434 163.223 458.163 163.156 457.886 163.145C457.61 163.134 457.334 163.179 457.076 163.277C456.818 163.374 456.584 163.523 456.388 163.713C455.976 164.103 455.731 164.63 455.7 165.188C455.67 165.747 455.857 166.295 456.224 166.726Z" fill="#263238"/>
<path d="M452.285 178.684C452.975 179.098 453.948 177.772 454.802 176.87C455.655 175.968 458.303 175.141 459.682 178.069C461.06 180.998 458.708 183.894 456.738 184.849C453.204 186.547 452.088 184.075 452.088 184.075L451.793 197.72C446.825 205.148 435.556 204.914 439.615 197.359V193.211C437.945 193.48 436.25 193.565 434.56 193.465C431.803 193.041 430.074 190.844 429.232 187.831C427.897 182.992 427.383 179.088 428.52 169.57C429.768 159.15 441.781 159.033 448.215 163.203C454.649 167.373 452.285 178.684 452.285 178.684Z" fill="#F2BEAB"/>
<path d="M437.317 167.946C440.184 167.671 443.018 167.098 445.895 166.885C446.516 166.812 447.145 166.841 447.756 166.97C449.944 167.554 449.681 170.037 450.031 171.766C450.633 174.758 451.125 179.82 452.285 179.841C452.635 179.841 453.948 177.645 454.802 176.859C455.271 176.183 455.536 175.393 455.568 174.578C455.786 173.347 455.896 172.085 455.994 170.833C456.082 169.771 456.191 168.71 456.191 167.649C456.241 166.45 456.142 165.25 455.896 164.073C455.622 163.073 455.095 162.154 454.364 161.4L454.145 161.166C452.703 159.704 450.953 158.56 449.014 157.813C446.224 156.8 443.298 156.181 440.326 155.977C437.359 155.774 434.404 155.419 431.475 154.916C431.307 154.869 431.128 154.869 430.96 154.916C430.842 154.98 430.741 155.072 430.669 155.183C430.596 155.294 430.553 155.422 430.545 155.553C430.425 156.212 430.5 156.891 430.761 157.511C431.023 158.131 431.46 158.666 432.022 159.055C430.041 159.203 427.766 158.206 425.862 157.696C425.708 157.633 425.542 157.6 425.375 157.6C425.208 157.6 425.042 157.633 424.888 157.696C424.697 157.826 424.561 158.018 424.505 158.238C424.366 158.736 424.348 159.259 424.45 159.765C424.625 161.301 425.213 162.765 426.157 164.01C427.632 165.872 429.715 167.192 432.065 167.755C433.796 168.079 435.567 168.143 437.317 167.946Z" fill="#263238"/>
<path d="M439.626 193.211C439.626 193.211 445.775 191.959 447.92 190.802C449.197 190.124 450.234 189.089 450.896 187.831C450.573 189.095 449.997 190.285 449.2 191.332C447.635 193.37 439.626 194.855 439.626 194.855V193.211Z" fill="#F2BEAB"/>
<path d="M441.103 177.125C441.091 177.452 441.213 177.771 441.443 178.012C441.673 178.252 441.991 178.395 442.329 178.409C442.597 178.43 442.865 178.372 443.099 178.243C443.332 178.114 443.52 177.92 443.638 177.685C443.756 177.451 443.798 177.187 443.758 176.929C443.719 176.671 443.6 176.43 443.418 176.239C443.235 176.048 442.997 175.914 442.735 175.856C442.472 175.798 442.198 175.819 441.948 175.914C441.698 176.01 441.483 176.177 441.332 176.393C441.182 176.609 441.102 176.864 441.103 177.125Z" fill="#263238"/>
<path d="M443.073 171.978L445.709 173.453C445.901 173.09 445.945 172.669 445.831 172.276C445.718 171.883 445.455 171.545 445.097 171.331C444.922 171.236 444.728 171.177 444.529 171.159C444.329 171.14 444.128 171.162 443.938 171.222C443.747 171.283 443.572 171.382 443.423 171.512C443.274 171.642 443.155 171.801 443.073 171.978Z" fill="#263238"/>
<path d="M440.173 185.73L437.361 186.791C437.418 186.978 437.513 187.152 437.642 187.302C437.771 187.451 437.93 187.574 438.109 187.661C438.289 187.749 438.485 187.8 438.686 187.811C438.886 187.822 439.087 187.792 439.276 187.725C439.659 187.565 439.964 187.27 440.131 186.899C440.298 186.529 440.313 186.111 440.173 185.73Z" fill="#F28F8F"/>
<path d="M429.79 173.071L432.197 171.204C432.089 171.041 431.947 170.902 431.78 170.795C431.613 170.689 431.425 170.618 431.228 170.587C431.03 170.556 430.829 170.566 430.636 170.615C430.443 170.665 430.262 170.753 430.107 170.875C429.785 171.139 429.575 171.509 429.517 171.914C429.458 172.32 429.555 172.731 429.79 173.071Z" fill="#263238"/>
<path d="M430.851 176.775C430.87 177.007 430.959 177.228 431.106 177.413C431.253 177.597 431.452 177.736 431.679 177.812C431.905 177.888 432.15 177.899 432.383 177.842C432.616 177.786 432.827 177.665 432.991 177.494C433.154 177.323 433.262 177.11 433.302 176.88C433.343 176.65 433.313 176.414 433.217 176.201C433.121 175.987 432.964 175.805 432.763 175.677C432.562 175.549 432.328 175.481 432.087 175.48C431.918 175.485 431.752 175.523 431.598 175.592C431.444 175.66 431.306 175.757 431.191 175.877C431.076 175.998 430.987 176.139 430.928 176.293C430.87 176.447 430.844 176.611 430.851 176.775Z" fill="#263238"/>
<path d="M437.449 175.777L437.306 183.321L432.886 182.345L437.449 175.777Z" fill="#EB9C7F"/>
<path d="M332.477 238.964L339.337 235.123L342.05 231.929L335.201 235.77L332.477 238.964Z" fill="#E47A53"/>
<path opacity="0.4" d="M332.477 238.964L339.337 235.123L342.05 231.929L335.201 235.77L332.477 238.964Z" fill="black"/>
<path d="M351.132 249.405L357.992 245.564L363.714 240.651L356.865 244.482L351.132 249.405Z" fill="#E47A53"/>
<path opacity="0.4" d="M351.132 249.405L357.992 245.564L363.714 240.651L356.865 244.482L351.132 249.405Z" fill="black"/>
<path d="M409.406 262.658C411.028 264.767 412.01 267.273 412.24 269.894C410.625 267.782 409.644 265.277 409.406 262.658ZM425.347 262.86C423.039 247.633 414.603 232.576 404.559 226.942C399.734 224.236 395.269 224.141 391.692 226.168L385.236 229.775L384.875 229.987C384.588 230.141 384.31 230.311 384.044 230.497C383.513 230.851 383.015 231.248 382.556 231.685L382.337 231.887C382.14 232.078 381.932 232.301 381.746 232.513C381.56 232.725 381.275 233.054 381.057 233.34C380.592 233.933 380.172 234.557 379.798 235.208C379.601 235.537 379.415 235.887 379.24 236.269L322.859 204.713L316.01 208.543V212.787L316.59 213.106L317.137 213.413V214.262L316.043 214.888V217.35L324.325 234.327L332.51 238.922L335.234 235.738L342.455 239.93L346.602 246.816L351.176 249.373L356.898 244.45L363.922 248.387L366.286 257.841L378.091 264.462C378.675 266.868 379.406 269.238 380.28 271.56C380.356 271.794 380.455 272.038 380.553 272.303C384.47 282.277 390.696 290.819 397.72 294.755C398.562 295.24 399.444 295.655 400.357 295.997C400.84 296.183 401.333 296.342 401.834 296.474C402.272 296.588 402.71 296.683 403.147 296.761C404.529 297.005 405.945 297.005 407.327 296.761L407.896 296.623C408.168 296.57 408.435 296.495 408.695 296.4L409.307 296.167C409.524 296.091 409.733 295.995 409.931 295.88C410.133 295.795 410.331 295.7 410.522 295.594L410.806 295.424C410.858 295.408 410.906 295.382 410.949 295.35C412.513 294.48 416.365 292.315 417.415 291.742C422.623 288.813 425.993 281.407 425.993 270.934C425.984 268.231 425.768 265.532 425.347 262.86Z" fill="#E47A53"/>
<path d="M407.404 275.508C404.69 273.99 402.502 269.491 402.502 265.459C402.502 261.427 404.69 259.379 407.404 260.886C410.117 262.393 412.294 266.902 412.294 270.945C412.294 274.988 410.106 277.025 407.404 275.508ZM418.487 266.69C416.19 251.474 407.754 236.407 397.699 230.783C393.037 228.173 388.727 227.982 385.225 229.775L384.864 229.987C384.577 230.141 384.299 230.311 384.033 230.497C383.502 230.851 383.005 231.248 382.545 231.685L382.326 231.887C382.129 232.078 381.921 232.301 381.735 232.513C381.549 232.725 381.265 233.054 381.046 233.34C380.581 233.933 380.161 234.557 379.787 235.208C379.59 235.537 379.404 235.887 379.229 236.269C378.209 238.32 377.474 240.493 377.041 242.731L315.999 208.543V212.787L316.579 213.106L317.126 213.413V214.262L316.032 214.888V217.35L324.314 234.327L332.499 238.922L335.223 235.739L342.444 239.93L346.591 246.816L351.165 249.373L356.887 244.45L363.911 248.387L366.275 257.841L378.092 264.462C378.675 266.868 379.406 269.238 380.28 271.56C380.356 271.794 380.455 272.038 380.553 272.303C384.47 282.277 390.696 290.819 397.72 294.756C398.562 295.24 399.444 295.655 400.357 295.997C400.84 296.183 401.333 296.343 401.834 296.474C402.272 296.588 402.71 296.683 403.147 296.761C404.529 297.005 405.945 297.005 407.327 296.761L407.896 296.623C408.168 296.57 408.435 296.495 408.695 296.4L409.307 296.167C409.524 296.091 409.733 295.995 409.931 295.88C410.133 295.795 410.331 295.7 410.522 295.594L410.806 295.424C410.858 295.408 410.906 295.382 410.949 295.35C415.938 292.294 419.144 284.994 419.144 274.775C419.125 272.069 418.906 269.366 418.487 266.69Z" fill="#E47A53"/>
<path opacity="0.4" d="M412.294 270.934C412.294 274.977 410.106 277.025 407.404 275.508C404.701 273.99 402.502 269.502 402.502 265.459C402.502 261.416 404.69 259.369 407.404 260.886C408.185 261.347 408.865 261.953 409.406 262.669C409.641 265.289 410.622 267.794 412.24 269.905C412.28 270.247 412.298 270.591 412.294 270.934Z" fill="black"/>
<path opacity="0.4" d="M425.971 270.924C425.971 281.397 422.601 288.803 417.393 291.731C416.299 292.304 412.491 294.469 410.927 295.339C415.916 292.283 419.122 284.983 419.122 274.765C419.11 272.062 418.898 269.363 418.487 266.69C416.19 251.474 407.754 236.407 397.699 230.783C393.038 228.173 388.727 227.982 385.225 229.775L391.681 226.168C395.259 224.141 399.723 224.236 404.548 226.942C414.603 232.576 423.039 247.633 425.337 262.86C425.753 265.529 425.965 268.224 425.971 270.924Z" fill="white"/>
<path d="M419.122 274.744C419.122 284.962 415.916 292.262 410.927 295.318C412.491 294.448 416.343 292.283 417.393 291.71C422.601 288.782 425.971 281.375 425.971 270.903C425.971 270.521 425.971 270.128 425.971 269.735L419.122 273.576C419.111 273.99 419.122 274.372 419.122 274.744Z" fill="#E47A53"/>
<path opacity="0.1" d="M419.122 274.744C419.122 284.962 415.916 292.262 410.927 295.318C412.491 294.448 416.343 292.283 417.393 291.71C422.601 288.782 425.971 281.375 425.971 270.903C425.971 270.521 425.971 270.128 425.971 269.735L419.122 273.576C419.111 273.99 419.122 274.372 419.122 274.744Z" fill="black"/>
<path opacity="0.15" d="M377.304 247.071V249.225L316.01 214.91L317.137 214.273V213.382L377.304 247.071Z" fill="black"/>
<path opacity="0.15" d="M377.304 247.962V249.225L316.01 214.91L317.137 214.273V214.262L377.304 247.962Z" fill="black"/>
<path opacity="0.15" d="M403.957 291.721C401.634 291.662 399.369 291.007 397.392 289.821C387.403 284.23 379.273 267.592 379.273 252.737C379.273 244.068 381.976 237.595 386.691 234.953C389.974 233.107 393.858 233.34 397.939 235.622C407.918 241.214 416.047 257.904 416.047 272.759C416.047 281.418 413.345 287.901 408.629 290.532C407.207 291.32 405.595 291.73 403.957 291.721ZM391.429 234.794C389.971 234.786 388.537 235.152 387.271 235.855C382.971 238.264 380.4 244.577 380.4 252.726C380.4 267.242 388.278 283.497 397.972 288.888C401.681 291.01 405.193 291.201 408.115 289.567C412.415 287.158 414.986 280.855 414.986 272.706C414.986 258.18 407.108 241.935 397.425 236.534C395.615 235.467 393.547 234.881 391.429 234.837V234.794Z" fill="black"/>
<path opacity="0.4" d="M379.186 236.248C378.166 238.299 377.43 240.472 376.997 242.71L315.955 208.522L322.805 204.691L379.186 236.248Z" fill="white"/>
<path d="M458.522 239.569C461.717 233.701 465.371 220.523 467.187 213.87C469.77 204.426 465.59 198.484 460.841 198.24C457.876 198.686 448.106 233.139 448.106 233.139C447.011 233.977 432.164 241.288 427.394 243.124C426.54 243.437 425.599 243.437 424.746 243.124C422.459 242.317 420.894 242.466 418.651 242.253C416.89 242.084 416.004 241.479 415.774 241.84C415.565 242.287 415.538 242.795 415.698 243.261C415.859 243.727 416.194 244.118 416.638 244.354C417.604 244.9 418.632 245.334 419.702 245.649C417.784 246.213 415.786 246.475 413.782 246.424C409.187 246.328 407.535 248.259 411.102 252.79C413.29 255.612 416.912 256.504 424.997 253.798C427.317 253.013 430.468 251.495 433.411 250.466C439.473 248.344 441.07 248.089 445.688 246.572C452.417 244.365 457.099 242.179 458.522 239.569Z" fill="#F2BEAB"/>
<path d="M459.058 197.349C461.848 197.72 464.529 198.325 466.181 200.532C467.833 202.739 469.157 205.837 467.538 214.273C466.297 220.205 464.638 226.048 462.57 231.759C462.57 231.759 456.071 234.455 449.167 227.621L453.915 209.816C453.915 209.816 454.681 198.24 459.058 197.349Z" fill="#455A64"/>
</svg>
